<svg xmlns="http://www.w3.org/2000/svg" width="25" height="24" fill="none" viewBox="0 0 25 24" id="pixabay"><rect width="24" height="24" x=".463" fill="none" rx="8"></rect><path fill="#fff" fill-rule="evenodd" d="M11.581 7L20 11.009L17.0651 17.298L15.7363 16.7074V15.5398L16.5413 15.8975L18.5855 11.5172L12.0673 8.41327L11.1759 10.1961H9.98301L11.581 7ZM4 11.2631V17.6647H14.6694V11.2631H7.55646C6.84517 11.2631 6.48952 10.9074 6.48952 10.5518H5.06694C5.06694 10.9074 4.71129 11.2631 4 11.2631ZM5.06694 13.5748H7.20081V12.5078H5.06694V13.5748ZM11.1129 13.5748C10.6218 13.5748 10.2238 13.9728 10.2238 14.4639C10.2238 14.9549 10.6218 15.353 11.1129 15.353C11.604 15.353 12.002 14.9549 12.002 14.4639C12.002 13.9728 11.604 13.5748 11.1129 13.5748ZM9.15686 14.4639C9.15686 13.3836 10.0326 12.5078 11.1129 12.5078C12.1932 12.5078 13.069 13.3836 13.069 14.4639C13.069 15.5442 12.1932 16.4199 11.1129 16.4199C10.0326 16.4199 9.15686 15.5442 9.15686 14.4639Z" clip-rule="evenodd"></path><defs><linearGradient id="paint0_linear_302_4948" x1=".463" x2="24.463" y1="12" y2="12" gradientUnits="userSpaceOnUse"><stop stop-color="#ED6D6B"></stop><stop offset="1" stop-color="#F0B076"></stop></linearGradient></defs></svg>